<svg width="231" height="230" viewBox="0 0 231 230" fill="none" xmlns="http://www.w3.org/2000/svg">
<path d="M111.39 0.00384899C113.704 0.107772 116.023 0.211694 118.337 0.315617C120.288 0.404143 122.239 0.477274 124.191 0.585046C124.399 0.596593 124.654 0.731307 124.801 0.889116C126.52 2.71738 128.228 4.5572 129.917 6.41626C130.071 6.58561 130.156 6.88968 130.148 7.12832C130.04 10.2652 129.909 13.3983 129.793 16.5352C129.774 17.0202 129.615 17.3974 129.225 17.7246C128.533 18.3019 127.911 18.9639 127.22 19.5413C126.818 19.8762 126.756 20.1802 126.942 20.6652C128.101 23.679 129.225 26.7043 130.365 29.7257C130.4 29.8142 130.427 29.9028 130.512 30.1414C126.864 30.0067 123.302 29.872 119.662 29.7334C119.57 27.3355 119.477 24.9953 119.384 22.6128C118.82 22.582 118.345 22.5589 117.788 22.532C117.692 24.9145 117.599 27.2393 117.502 29.6449C114.415 29.5256 111.382 29.4101 108.392 29.2946C108.392 27.9167 108.357 26.6119 108.4 25.3071C108.504 22.0508 108.639 18.7946 108.763 15.5345C108.956 10.4769 109.153 5.42322 109.35 0.365654C109.354 0.246335 109.346 0.123168 109.342 0C110.026 0 110.71 0 111.394 0L111.39 0.00384899ZM120.547 15.4152C120.644 12.8364 120.736 10.2498 120.833 7.60944C119.991 7.56326 119.206 7.52092 118.36 7.47858C118.26 10.0574 118.155 12.5284 118.082 15.0033C118.078 15.1381 118.314 15.3882 118.449 15.3959C119.121 15.4383 119.801 15.4152 120.543 15.4152H120.547Z" fill="#2B3544"/>
<path d="M0.644043 129.176C2.43295 128.814 4.22185 128.475 6.0069 128.09C13.7691 126.416 21.5236 124.726 29.3786 123.021C29.6761 124.357 29.9736 125.673 30.2634 126.99C30.4372 127.771 30.5531 128.571 30.7811 129.334C30.9395 129.861 30.7695 130.123 30.3484 130.407C26.929 132.748 23.525 135.107 20.1134 137.459C19.9395 137.578 19.7772 137.713 19.6574 137.967C23.7569 137.082 27.8563 136.192 32.0561 135.284C32.2918 136.339 32.5275 137.37 32.7555 138.398C33.0839 139.891 33.3968 141.389 33.7446 142.874C33.845 143.313 33.7794 143.529 33.2887 143.633C24.1239 145.611 14.9591 147.601 5.79439 149.587C5.58189 149.633 5.36165 149.649 5.09119 149.687C4.60436 147.474 4.10594 145.276 3.65775 143.067C3.61911 142.882 3.86253 142.559 4.05958 142.424C7.45966 140.053 10.8752 137.705 14.2869 135.346C14.5264 135.18 14.7544 135.007 14.9514 134.745C10.8056 135.642 6.656 136.543 2.42522 137.459C2.12385 136.104 1.83021 134.761 1.52497 133.421C1.23906 132.163 0.937686 130.889 0.644043 129.615C0.644043 129.468 0.644043 129.322 0.644043 129.176Z" fill="#2B3544"/>
<path d="M230.644 120.993H223.002V114.461H219.679V120.292H212.527V114.627H208.775V121.759H201.229C201.141 116.412 201.052 111.02 200.959 105.531C210.773 105.362 220.525 105.193 230.497 105.016C230.497 107.171 230.478 109.23 230.501 111.289C230.524 113.11 230.594 114.931 230.644 116.755V120.993Z" fill="#2B3544"/>
<path d="M119.164 230C118.894 227.51 118.623 225.023 118.357 222.533C118.329 222.271 118.306 222.009 118.275 221.678C119.724 221.509 121.119 221.347 122.638 221.174C121.873 214.265 121.107 207.372 120.331 200.394C123.549 200.036 126.733 199.681 129.967 199.323C130.74 206.256 131.505 213.134 132.281 220.1C133.46 219.985 134.596 219.885 135.724 219.75C136.137 219.7 136.28 219.823 136.327 220.235C136.589 222.748 136.875 225.262 137.154 227.775C137.161 227.841 137.13 227.91 137.107 228.033C135.639 228.199 134.167 228.372 132.695 228.533C129.326 228.907 125.953 229.276 122.583 229.654C121.687 229.754 120.798 229.884 119.906 230H119.172H119.164Z" fill="#2B3544"/>
<path d="M34.7835 146.419C36.5531 149.572 38.3034 152.681 40.0884 155.857C38.1063 157.173 36.1474 158.474 34.1383 159.81C34.3972 160.279 34.629 160.699 34.8995 161.192C36.9627 160.045 38.9989 158.917 41.1355 157.731C42.6424 160.41 44.1376 163.066 45.6754 165.799C37.1056 170.575 28.5668 175.337 19.9739 180.125C18.8804 178.173 17.8256 176.291 16.767 174.409C15.4688 172.1 14.1551 169.798 12.8839 167.473C12.7217 167.173 12.6598 166.723 12.7487 166.395C13.3746 164.078 14.0392 161.769 14.7269 159.467C14.8119 159.182 15.0515 158.863 15.3104 158.717C18.0652 157.154 20.8316 155.611 23.6096 154.094C23.8917 153.94 24.309 153.909 24.6297 153.979C25.6265 154.202 26.6156 154.475 27.5854 154.791C27.995 154.925 28.1882 154.814 28.4277 154.502C30.4446 151.904 32.4808 149.321 34.5131 146.739C34.5865 146.646 34.6676 146.562 34.7913 146.427L34.7835 146.419ZM21.7087 168.551C24.0578 167.238 26.322 165.976 28.6248 164.69C28.2075 163.947 27.8288 163.278 27.4193 162.546C25.0972 163.84 22.8292 165.102 20.5071 166.395C20.9128 167.127 21.2875 167.8 21.7048 168.551H21.7087Z" fill="#2B3544"/>
<path d="M219.041 166.118C217.078 169.305 215.173 172.384 213.272 175.467C212.646 176.484 212.044 177.511 211.379 178.5C211.198 178.77 210.865 179.024 210.552 179.101C208.192 179.686 205.819 180.236 203.443 180.764C203.176 180.821 202.813 180.771 202.581 180.629C199.846 178.982 197.122 177.319 194.417 175.629C194.147 175.46 193.931 175.102 193.838 174.786C193.56 173.832 193.324 172.866 193.131 171.888C193.046 171.445 192.853 171.303 192.42 171.241C189.19 170.768 185.964 170.264 182.737 169.767C182.621 169.748 182.513 169.702 182.297 169.636C184.198 166.553 186.068 163.524 187.961 160.449C190.102 161.542 192.196 162.612 194.332 163.701C194.607 163.255 194.862 162.847 195.163 162.362C193.146 161.118 191.141 159.887 189.089 158.624C190.716 155.992 192.319 153.397 193.954 150.749C202.33 155.88 210.649 160.976 219.037 166.118H219.041ZM201.299 166.111C200.854 166.834 200.449 167.489 200.004 168.208C202.28 169.602 204.506 170.964 206.758 172.342C207.21 171.611 207.612 170.956 208.049 170.248C205.804 168.87 203.59 167.515 201.299 166.111Z" fill="#2B3544"/>
<path d="M181.918 192.715C184.704 195.836 187.49 198.958 190.333 202.141C188.235 204 186.164 205.836 184.02 207.734C177.498 200.428 171.003 193.15 164.45 185.81C166.239 184.224 168.001 182.661 169.813 181.056C173.963 183.065 178.116 185.075 182.266 187.084C182.297 187.049 182.324 187.018 182.355 186.984C179.534 183.82 176.714 180.652 173.87 177.461C175.972 175.602 178.047 173.766 180.183 171.873C186.713 179.189 193.196 186.453 199.741 193.785C199.355 194.131 198.984 194.462 198.613 194.793C197.373 195.894 196.117 196.976 194.9 198.103C194.514 198.461 194.205 198.484 193.753 198.261C190.082 196.46 186.4 194.678 182.722 192.892C182.49 192.78 182.25 192.68 182.011 192.576C181.98 192.619 181.949 192.661 181.918 192.703V192.715Z" fill="#2B3544"/>
<path d="M133.479 30.8766C136.697 21.6121 139.889 12.4284 143.107 3.16772C144.348 3.59111 145.534 3.99526 146.724 4.3994C147.601 4.69962 148.466 5.02294 149.351 5.29236C149.776 5.41938 149.927 5.65802 149.95 6.06601C150.097 8.81034 150.251 11.5547 150.406 14.299C150.503 15.9618 150.603 17.6284 150.827 19.3104C152.218 15.3113 153.609 11.316 155.019 7.26304C157.685 8.18295 160.301 9.08746 162.994 10.0151C159.779 19.268 156.584 28.471 153.369 37.7316C151.167 36.9734 149.031 36.2498 146.905 35.4877C146.751 35.4338 146.604 35.1297 146.592 34.9334C146.384 31.731 146.202 28.5248 146.009 25.3225C145.936 24.1139 145.858 22.9092 145.623 21.6698C144.243 25.6304 142.864 29.591 141.461 33.6286C138.811 32.7164 136.199 31.8157 133.483 30.8804L133.479 30.8766Z" fill="#2B3544"/>
<path d="M41.2322 203.111C37.581 199.635 33.9993 196.225 30.3906 192.792C36.0935 184.682 41.7732 176.607 47.4838 168.486C49.7402 170.633 51.9579 172.743 54.1989 174.875C53.2523 176.11 52.3366 177.304 51.5059 178.385C52.495 179.474 53.4571 180.537 54.4655 181.649C55.7289 180.598 56.8997 179.628 58.1167 178.616C60.3577 180.745 62.56 182.838 64.8319 184.998C56.9383 191.052 49.0988 197.068 41.2245 203.111H41.2322ZM47.2442 183.962C45.123 186.711 43.0405 189.401 40.9734 192.103C40.842 192.272 40.8497 192.546 40.7918 192.769C41.012 192.7 41.2825 192.692 41.4486 192.553C43.2105 191.095 44.9569 189.617 46.7071 188.142C47.5726 187.415 48.4342 186.687 49.3422 185.921C48.6081 185.233 47.9358 184.605 47.2481 183.959L47.2442 183.962Z" fill="#2B3544"/>
<path d="M81.7902 35.5301C80.7238 25.6728 79.6728 15.908 78.6064 6.03146C83.4361 4.75359 88.2464 3.48343 93.0954 2.20557C97.0596 11.2738 101.001 20.2996 104.98 29.4102C101.978 30.2031 99.0456 30.9767 96.0203 31.7773C95.4562 30.3455 94.9036 28.9329 94.3279 27.4665C92.9254 27.836 91.5499 28.1978 90.0817 28.5827C90.271 29.8567 90.414 31.1037 90.6574 32.3354C90.7849 32.9744 90.6497 33.213 89.9928 33.3785C87.2766 34.0521 84.5798 34.7949 81.7979 35.5339L81.7902 35.5301ZM91.832 21.1387C91.7586 20.9116 91.7045 20.7269 91.6349 20.5498C90.4835 17.5399 89.3321 14.5262 88.1614 11.524C88.0842 11.3277 87.8446 11.1929 87.6823 11.0313C87.6205 11.2622 87.4776 11.5086 87.5085 11.728C87.8871 14.3183 88.2889 16.9087 88.6908 19.4952C88.8105 20.2727 88.9535 21.0463 89.0926 21.8662C90.0663 21.6083 90.9317 21.3774 91.8281 21.1387H91.832Z" fill="#2B3544"/>
<path d="M225.041 150.796C215.139 149.81 205.309 148.836 195.438 147.855C196.206 144.864 196.96 141.935 197.736 138.918C199.263 139.129 200.754 139.333 202.33 139.549C202.67 138.24 203.03 136.935 203.327 135.623C203.358 135.488 203.088 135.192 202.894 135.115C201.654 134.618 200.399 134.16 199.085 133.664C199.85 130.688 200.611 127.744 201.392 124.715C202.829 125.319 204.193 125.889 205.553 126.466C213.06 129.653 220.563 132.852 228.078 136.019C228.639 136.258 228.778 136.466 228.615 137.085C227.452 141.469 226.34 145.869 225.208 150.264C225.165 150.426 225.107 150.584 225.038 150.796H225.041ZM209.08 140.496C212.724 141.019 216.302 141.535 219.879 142.051C219.93 141.978 219.98 141.904 220.03 141.831C219.86 141.662 219.721 141.412 219.512 141.335C217.766 140.661 216.004 140.022 214.25 139.368C212.797 138.829 211.344 138.283 209.811 137.713C209.559 138.667 209.331 139.545 209.08 140.496Z" fill="#2B3544"/>
<path d="M72.5712 27.9281C70.8402 28.9442 69.1866 29.9141 67.5058 30.8995C68.1395 31.9733 68.7384 33.001 69.3836 34.098C71.4391 32.9048 73.4714 31.7232 75.5501 30.5146C76.8367 32.7008 78.1002 34.8562 79.3907 37.0502C74.6499 39.8176 69.9593 42.5542 65.2185 45.3216C60.2652 36.9 55.3235 28.4977 50.3354 20.0107C54.9294 17.328 59.5041 14.6568 64.1444 11.9509C65.431 14.1333 66.6983 16.2887 67.9888 18.4827C66.0531 19.6143 64.1483 20.7305 62.1971 21.8736C62.7612 22.832 63.2983 23.7481 63.8662 24.7142C65.574 23.7211 67.2277 22.7589 68.9393 21.762C70.1448 23.8097 71.3387 25.8342 72.5712 27.9319V27.9281Z" fill="#2B3544"/>
<path d="M68.2784 199.566C68.8889 198.435 69.453 197.391 70.0441 196.302C67.9654 195.182 65.9099 194.077 63.7694 192.927C64.971 190.702 66.1533 188.512 67.3704 186.256C72.2001 188.847 76.9756 191.41 81.8362 194.016C77.1843 202.615 72.5555 211.182 67.8688 219.843C63.186 217.329 58.5225 214.827 53.7778 212.283C54.9833 210.051 56.1656 207.865 57.3827 205.617C59.3686 206.675 61.2889 207.703 63.2942 208.777C63.8197 207.811 64.3258 206.887 64.8667 205.886C63.1358 204.951 61.4551 204.043 59.7009 203.096C60.8407 200.986 61.9535 198.923 63.0971 196.803C64.8204 197.722 66.5049 198.623 68.2784 199.566Z" fill="#2B3544"/>
<path d="M27.6553 40.2911C29.846 38.0741 31.9672 35.9264 34.0266 33.8479C39.2001 38.9132 44.3698 43.9707 49.5124 49.0052C49.9412 48.5741 50.401 48.1199 50.996 47.5233C50.034 46.6997 49.0024 45.8144 48.0557 44.9984C50.0649 42.9469 51.9002 41.0724 53.6736 39.2634C56.4246 41.9885 59.191 44.7251 61.7836 47.2924C57.3287 51.8573 52.8584 56.4376 48.3378 61.0718C41.3792 54.082 34.5057 47.1731 27.663 40.295L27.6553 40.2911Z" fill="#2B3544"/>
<path d="M205.835 91.9909C207.191 91.6252 208.497 91.275 209.88 90.9055C210.591 93.4612 211.294 95.9977 212.017 98.5957C208.246 99.635 204.498 100.67 200.642 101.729C198.926 95.5512 197.223 89.3967 195.484 83.1382C204.946 80.5324 214.347 77.9459 223.859 75.3286C224.686 78.3 225.497 81.2291 226.332 84.239C219.281 86.1828 212.303 88.1034 205.286 90.0356C205.472 90.7053 205.638 91.3058 205.827 91.9947L205.835 91.9909Z" fill="#2B3544"/>
<path d="M93.2847 205.367C92.6008 205.193 91.9942 205.039 91.3065 204.862C90.9703 206.194 90.6419 207.503 90.2864 208.919C87.69 208.288 85.1245 207.664 82.5049 207.025C83.4438 203.211 84.3672 199.455 85.3138 195.609C91.5808 197.137 97.7936 198.654 104.119 200.197C101.781 209.701 99.4589 219.161 97.1136 228.684C94.1154 227.952 91.148 227.229 88.0996 226.482C89.8305 219.427 91.5499 212.422 93.2847 205.363V205.367Z" fill="#2B3544"/>
<path d="M214.2 55.4022C211.874 57.0688 209.641 58.67 207.349 60.3135C206.484 59.128 205.642 57.9734 204.757 56.7609C199.062 60.8408 193.409 64.89 187.714 68.966C185.821 66.3449 183.955 63.7622 182.046 61.118C187.726 57.0457 193.382 52.9928 199.085 48.9013C198.304 47.812 197.547 46.7536 196.771 45.6681C199.062 44.0246 201.314 42.4119 203.621 40.7568C207.141 45.6297 210.641 50.4794 214.196 55.3984L214.2 55.4022Z" fill="#2B3544"/>
<path d="M38.2033 77.5455C36.936 80.5324 35.6958 83.4537 34.4246 86.4482C27.9567 83.727 21.5468 81.0289 15.0905 78.3153C14.5612 79.5393 14.0435 80.7364 13.5141 81.9642C10.9139 80.8672 8.35993 79.7934 5.74805 78.6925C8.10106 73.1462 10.4386 67.6383 12.7955 62.0803C15.4074 63.1773 17.9574 64.2511 20.5654 65.352C19.9975 66.703 19.4488 68.0155 18.8654 69.4011C25.3024 72.1108 31.7123 74.8128 38.2033 77.5455Z" fill="#2B3544"/>
<path d="M180.852 49.421C181.331 49.9598 181.779 50.4641 182.251 50.9991C180.698 52.7196 179.167 54.417 177.715 56.022C174.365 53.0275 171.046 50.0599 167.677 47.0462C169.126 45.4411 170.652 43.7514 172.221 42.0117C172.804 42.4197 173.356 42.8084 173.948 43.2241C177.371 39.4329 180.779 35.6609 184.237 31.835C183.773 31.3192 183.34 30.8381 182.834 30.2723C184.368 28.5672 185.906 26.8582 187.382 25.2224C190.724 28.2208 194.035 31.196 197.4 34.2175C195.959 35.8148 194.433 37.5045 192.864 39.2404C192.281 38.8324 191.728 38.4475 191.137 38.0357C187.699 41.8423 184.291 45.6143 180.852 49.421Z" fill="#2B3544"/>
<path d="M158.783 221.513C154.498 222.96 150.31 224.377 146.017 225.828C145.318 223.78 144.58 221.621 143.834 219.423C144.495 219.115 145.086 218.838 145.743 218.53C144.101 213.703 142.462 208.888 140.801 204.012C140.129 204.158 139.472 204.297 138.738 204.458C138 202.295 137.266 200.143 136.551 198.053C140.793 196.622 145.012 195.194 149.32 193.739C150.016 195.783 150.746 197.93 151.5 200.147C150.978 200.386 150.476 200.575 150.024 200.844C149.861 200.94 149.691 201.279 149.742 201.433C151.314 206.125 152.914 210.805 154.533 215.555C155.213 215.409 155.869 215.27 156.592 215.116C157.33 217.279 158.064 219.427 158.779 221.517L158.783 221.513Z" fill="#2B3544"/>
<path d="M23.2624 104.781C23.2624 104.327 23.189 103.965 23.2778 103.653C23.4865 102.891 23.2585 102.622 22.4587 102.483C17.8995 101.686 13.3519 100.82 8.79659 99.9811C8.61114 99.9465 8.41409 99.9619 8.19385 99.9503C7.9968 100.593 7.80748 101.209 7.59498 101.89C5.31151 101.471 3.07055 101.059 0.918457 100.662C1.7337 96.2745 2.54122 91.9444 3.37579 87.4719C5.49311 87.8568 7.74566 88.2687 10.0523 88.6882C9.99435 89.4118 9.94412 90.0584 9.88617 90.7859C14.9399 91.7174 19.9589 92.6411 25.032 93.5764C25.2406 92.9028 25.4299 92.287 25.6502 91.5711C27.922 91.9868 30.1862 92.4025 32.3306 92.7951C31.5114 97.1906 30.7039 101.525 29.8694 105.986C27.752 105.601 25.5149 105.193 23.2624 104.781Z" fill="#2B3544"/>
<path d="M164.327 195.267C161.835 196.633 159.408 197.961 156.928 199.32C155.572 196.86 154.231 194.424 152.863 191.945C155.332 190.594 157.759 189.266 160.266 187.896C161.618 190.348 162.955 192.777 164.331 195.271L164.327 195.267Z" fill="#2B3544"/>
<path d="M164.393 44.8328C161.974 43.324 159.629 41.8653 157.229 40.368C158.729 37.9816 160.197 35.6453 161.711 33.2358C164.099 34.7254 166.444 36.1842 168.867 37.6968C167.383 40.0639 165.919 42.3964 164.389 44.829L164.393 44.8328Z" fill="#2B3544"/>
<path d="M29.6337 118.26H21.2881V109.935H29.6337V118.26Z" fill="#2B3544"/>
</svg>
