<svg width="29" height="29" viewBox="0 0 29 29" fill="none" xmlns="http://www.w3.org/2000/svg">
<g clip-path="url(#clip0_15_7)">
<path d="M7.45422 15.6628H10.5238V28.2984C10.5238 28.5479 10.726 28.75 10.9755 28.75H16.1802C16.4297 28.75 16.6318 28.5479 16.6318 28.2984V15.7223H20.1607C20.3901 15.7223 20.5832 15.5502 20.6094 15.3223L21.1453 10.6705C21.16 10.5426 21.1195 10.4144 21.0339 10.3183C20.9481 10.2223 20.8255 10.1672 20.6967 10.1672H16.632V7.25125C16.632 6.37226 17.1054 5.9265 18.0391 5.9265C18.1722 5.9265 20.6967 5.9265 20.6967 5.9265C20.9462 5.9265 21.1484 5.72427 21.1484 5.47489V1.20495C21.1484 0.955461 20.9462 0.753336 20.6967 0.753336H17.0341C17.0083 0.752078 16.9509 0.75 16.8664 0.75C16.2309 0.75 14.0219 0.874742 12.277 2.47977C10.3437 4.25842 10.6124 6.38801 10.6767 6.75726V10.1671H7.45417C7.20465 10.1671 7.0025 10.3693 7.0025 10.6187V15.2111C7.00256 15.4606 7.20471 15.6628 7.45422 15.6628Z" fill="white"/>
</g>
<defs>
<clipPath id="clip0_15_7">
<rect width="28.0035" height="28" fill="white" transform="translate(0.0737305 0.75)"/>
</clipPath>
</defs>
</svg>
