<svg width="28" height="28" viewBox="0 0 28 28" fill="none" xmlns="http://www.w3.org/2000/svg">
<path d="M27.7312 11.2581H26.6033V11.2H14.0018V16.8H21.9149C20.7604 20.0599 17.6583 22.4 14.0018 22.4C9.36228 22.4 5.6007 18.6389 5.6007 14C5.6007 9.3611 9.36228 5.6 14.0018 5.6C16.1433 5.6 18.0917 6.4078 19.5752 7.7273L23.5356 3.7674C21.0348 1.4371 17.6898 0 14.0018 0C6.26929 0 0 6.2685 0 14C0 21.7315 6.26929 28 14.0018 28C21.7342 28 28.0035 21.7315 28.0035 14C28.0035 13.0613 27.9069 12.145 27.7312 11.2581Z" fill="white"/>
<path d="M1.6144 7.4837L6.21468 10.857C7.45944 7.7756 10.474 5.6 14.0018 5.6C16.1433 5.6 18.0917 6.4078 19.5752 7.7273L23.5356 3.7674C21.0348 1.4371 17.6898 0 14.0018 0C8.62368 0 3.9597 3.0359 1.6144 7.4837Z" fill="white"/>
<path d="M14.0018 28C17.6184 28 20.9046 26.6161 23.3892 24.3656L19.0557 20.699C17.6499 21.7637 15.9025 22.4 14.0018 22.4C10.3599 22.4 7.26761 20.0781 6.10267 16.8378L1.53669 20.3553C3.85398 24.8892 8.55998 28 14.0018 28Z" fill="white"/>
<path d="M27.7312 11.2581H26.6033V11.2H14.0018V16.8H21.9149C21.3604 18.3659 20.353 19.7162 19.0536 20.6997L19.0557 20.699L23.3892 24.3656C23.0826 24.6442 28.0035 21 28.0035 14C28.0035 13.0613 27.9069 12.145 27.7312 11.2581Z" fill="white"/>
</svg>
