<svg width="27" height="27" viewBox="0 0 27 27" fill="none" xmlns="http://www.w3.org/2000/svg">
<path fill-rule="evenodd" clip-rule="evenodd" d="M3 0C1.34314 0 0 1.34326 0 3V24C0 25.6567 1.34314 27 3 27H24C25.6569 27 27 25.6567 27 24V3C27 1.34326 25.6569 0 24 0H3ZM21.3513 11.8C21.6378 11.8 21.8864 12.0022 21.9235 12.2864C21.9755 12.6841 22 13.0974 22 13.5C22 18.1941 18.1941 22 13.5 22C8.80591 22 5 18.1941 5 13.5C5 8.80591 8.80591 5 13.5 5C15.5155 5 17.3622 5.70703 18.8181 6.88037C19.0826 7.09351 19.0884 7.48657 18.8481 7.72681L17.2836 9.29126C17.059 9.51611 16.7 9.52319 16.4409 9.33911C15.6101 8.74902 14.5968 8.3999 13.5 8.3999C10.6835 8.3999 8.40002 10.6836 8.40002 13.5C8.40002 16.3164 10.6835 18.6001 13.5 18.6001C15.7197 18.6001 17.6029 17.1792 18.3038 15.2H14.1C13.7687 15.2 13.5 14.9314 13.5 14.6001V12.3999C13.5 12.0686 13.7687 11.8 14.1 11.8H21.3513Z" fill="#FFA500"/>
</svg>
