<svg width="68" height="74" viewBox="0 0 68 74" fill="none" xmlns="http://www.w3.org/2000/svg">
<path d="M53.1325 23.1376L54.6938 21.5156C57.2801 18.8281 61.4738 18.8281 64.06 21.5156C66.6466 24.2031 66.6466 28.5604 64.06 31.2477L62.4991 32.87M53.1325 23.1376C53.1325 23.1376 53.3279 26.5845 56.2547 29.6258C59.1819 32.667 62.4991 32.87 62.4991 32.87M53.1325 23.1376L38.7811 38.0496C37.8089 39.0597 37.3229 39.5648 36.9049 40.1216C36.4121 40.7786 35.9893 41.4894 35.6444 42.2412C35.352 42.8789 35.1344 43.5562 34.6999 44.9114L33.3081 49.25L32.8577 50.6535M62.4991 32.87L48.1476 47.7821C47.1755 48.7922 46.6894 49.2972 46.1535 49.7316C45.5213 50.2436 44.8371 50.6829 44.1136 51.0413C43.4999 51.3451 42.8481 51.5712 41.5438 52.0227L37.3684 53.4689L36.0176 53.9368M32.8577 50.6535L32.4073 52.0573C32.1935 52.7241 32.3605 53.4594 32.8388 53.9564C33.3172 54.4534 34.0249 54.627 34.6665 54.4048L36.0176 53.9368M32.8577 50.6535L36.0176 53.9368" stroke="white" stroke-width="3"/>
<path d="M18.8421 40.5H27.2631" stroke="white" stroke-width="3" stroke-linecap="round"/>
<path d="M18.8421 26.5H40.7368" stroke="white" stroke-width="3" stroke-linecap="round"/>
<path d="M18.8421 54.5H23.8947" stroke="white" stroke-width="3" stroke-linecap="round"/>
<path d="M2 44V30C2 16.8007 2 10.201 5.94633 6.1005C9.8927 2 16.2442 2 28.9473 2H35.6842C48.3871 2 54.739 2 58.6851 6.1005M62.6315 44C62.6315 57.1992 62.6315 63.7991 58.6851 67.8994M58.6851 67.8994C54.739 72 48.3871 72 35.6842 72H28.9473C16.2442 72 9.8927 72 5.94633 67.8994M58.6851 67.8994C61.8618 64.5985 62.4813 59.6786 62.6022 51" stroke="white" stroke-width="3" stroke-linecap="round"/>
</svg>
