<svg width="29" height="29" viewBox="0 0 29 29" fill="none" xmlns="http://www.w3.org/2000/svg">
<g clip-path="url(#clip0_15_12)">
<path d="M19.6714 0.75H9.17005C6.84911 0.75 4.62323 1.67187 2.98208 3.31282C1.34093 4.95376 0.418945 7.17936 0.418945 9.5L0.418945 20C0.418945 22.3206 1.34093 24.5462 2.98208 26.1872C4.62323 27.8281 6.84911 28.75 9.17005 28.75H19.6714C21.9923 28.75 24.2182 27.8281 25.8593 26.1872C27.5005 24.5462 28.4225 22.3206 28.4225 20V9.5C28.4225 7.17936 27.5005 4.95376 25.8593 3.31282C24.2182 1.67187 21.9923 0.75 19.6714 0.75ZM25.7971 20C25.7971 23.3775 23.0493 26.125 19.6714 26.125H9.17005C5.79212 26.125 3.04428 23.3775 3.04428 20V9.5C3.04428 6.1225 5.79212 3.375 9.17005 3.375H19.6714C23.0493 3.375 25.7971 6.1225 25.7971 9.5V20Z" fill="white"/>
<path d="M14.4207 7.75C12.5639 7.75 10.7832 8.4875 9.47031 9.80025C8.15739 11.113 7.4198 12.8935 7.4198 14.75C7.4198 16.6065 8.15739 18.387 9.47031 19.6997C10.7832 21.0125 12.5639 21.75 14.4207 21.75C16.2774 21.75 18.0581 21.0125 19.3711 19.6997C20.684 18.387 21.4216 16.6065 21.4216 14.75C21.4216 12.8935 20.684 11.113 19.3711 9.80025C18.0581 8.4875 16.2774 7.75 14.4207 7.75ZM14.4207 19.125C13.2606 19.1236 12.1485 18.6622 11.3282 17.8421C10.508 17.0219 10.0465 15.9099 10.0451 14.75C10.0451 12.3368 12.0089 10.375 14.4207 10.375C16.8325 10.375 18.7962 12.3368 18.7962 14.75C18.7962 17.1615 16.8325 19.125 14.4207 19.125Z" fill="white"/>
<path d="M21.9467 8.15774C22.4619 8.15774 22.8795 7.74013 22.8795 7.22499C22.8795 6.70984 22.4619 6.29224 21.9467 6.29224C21.4315 6.29224 21.0138 6.70984 21.0138 7.22499C21.0138 7.74013 21.4315 8.15774 21.9467 8.15774Z" fill="white"/>
</g>
<defs>
<clipPath id="clip0_15_12">
<rect width="28.0035" height="28" fill="white" transform="translate(0.418945 0.75)"/>
</clipPath>
</defs>
</svg>
