<svg width="68" height="74" viewBox="0 0 68 74" fill="none" xmlns="http://www.w3.org/2000/svg">
<path d="M65.5912 51H17.5911C13.8712 51 12.0113 51 10.4853 51.3577C6.34416 52.3286 3.1096 55.159 2 58.7822" stroke="white" stroke-width="3"/>
<path d="M18 19.5H50" stroke="white" stroke-width="3" stroke-linecap="round"/>
<path d="M18 31.75H38" stroke="white" stroke-width="3" stroke-linecap="round"/>
<path d="M38 51V63.3581C38 64.3227 38 64.8051 37.6204 65C37.2412 65.195 36.7224 64.9794 35.6844 64.5478L30.7156 62.4828C30.3644 62.3369 30.1888 62.2637 30 62.2637C29.8112 62.2637 29.6356 62.3369 29.2844 62.4828L24.3156 64.5478C23.2777 64.9794 22.7588 65.195 22.3794 65C22 64.8051 22 64.3227 22 63.3581V52.575" stroke="white" stroke-width="3" stroke-linecap="round"/>
<path d="M26 72C14.6863 72 9.02944 72 5.51472 68.9245C2 65.8491 2 60.8994 2 51V23C2 13.1005 2 8.15076 5.51472 5.07538C9.02944 2 14.6863 2 26 2H42C53.3136 2 58.9704 2 62.4852 5.07538C66 8.15076 66 13.1005 66 23M42 72C53.3136 72 58.9704 72 62.4852 68.9245C66 65.8491 66 60.8994 66 51V37" stroke="white" stroke-width="3" stroke-linecap="round"/>
</svg>
