<svg width="73" height="74" viewBox="0 0 73 74" fill="none" xmlns="http://www.w3.org/2000/svg">
<path d="M56.4945 23C56.5792 23.5539 56.7084 24.0129 56.9145 24.4448C57.4346 25.5347 58.3852 26.3292 60.2864 27.9181L62.0172 29.3647C68.7071 34.9561 72.0521 37.7519 71.4256 41.0611C70.7991 44.3707 66.6162 46.0021 58.2498 49.2651L56.0854 50.109C53.7078 51.0365 52.5192 51.4999 51.6278 52.3714C50.7363 53.2432 50.2432 54.4241 49.2569 56.7859L48.3588 58.9363C44.8875 67.2482 43.1518 71.4041 39.8408 71.9448C36.5298 72.4852 33.8362 69.0524 28.4494 62.1871L27.0557 60.4109C25.5249 58.46 24.7595 57.4842 23.6885 56.9333C22.6175 56.382 21.3621 56.3173 18.8514 56.1881L16.5655 56.0705C7.73012 55.6162 3.31237 55.3891 1.89263 52.4137C0.472855 49.4384 2.99132 45.6853 8.02825 38.1792L9.33137 36.2374C10.7627 34.1045 11.4784 33.0381 11.7079 31.8257C11.9374 30.6132 11.6547 29.3924 11.0894 26.9507L10.5748 24.7276C8.58548 16.135 7.59085 11.8386 10.0243 9.45922C12.4578 7.07977 16.7077 8.19306 25.2077 10.4196L27.4067 10.9957C29.822 11.6284 31.0299 11.9447 32.2427 11.7468C33.4554 11.5487 34.5362 10.8587 36.6978 9.47878L38.6655 8.22242C46.2714 3.36627 50.0745 0.938211 52.998 2.44297C54.8131 3.37712 55.5429 5.44279 55.8873 9.00002" stroke="white" stroke-width="3" stroke-linecap="round"/>
<path d="M62.856 59.6439C61.8309 58.6187 60.1691 58.6187 59.1439 59.6439C58.1188 60.669 58.1188 62.3308 59.1439 63.356L62.856 59.6439ZM66.1439 70.356C67.1691 71.3811 68.8309 71.3811 69.856 70.356C70.8812 69.3308 70.8812 67.669 69.856 66.6439L66.1439 70.356ZM59.1439 63.356L66.1439 70.356L69.856 66.6439L62.856 59.6439L59.1439 63.356Z" fill="white"/>
</svg>
