<svg width="68" height="74" viewBox="0 0 68 74" fill="none" xmlns="http://www.w3.org/2000/svg">
<path d="M19.7778 7.2473C19.7778 4.34929 22.1656 2 25.1111 2H42.8889C45.8343 2 48.2222 4.34929 48.2222 7.2473V10.7455C48.2222 13.6435 45.8343 15.9928 42.8889 15.9928H25.1111C22.1656 15.9928 19.7778 13.6435 19.7778 10.7455V7.2473Z" stroke="white" stroke-width="3"/>
<path d="M66 51.0108C66 60.9051 66 65.8526 62.8757 68.9261C59.7515 72 54.7232 72 44.6667 72H23.3333C13.2767 72 8.24839 72 5.1242 68.9261C2 65.8526 2 60.9051 2 51.0108V40.5161M48.2222 9.03845C55.9556 9.08082 60.1436 9.41822 62.8757 12.1062C66 15.18 66 20.1272 66 30.0215V37.0179M19.7778 9.03845C12.0443 9.08082 7.85621 9.41822 5.1242 12.1062C2.39225 14.794 2.04924 18.9144 2.00619 26.5226" stroke="white" stroke-width="3" stroke-linecap="round"/>
<path d="M42.4782 33.675L25.6302 50.2676" stroke="white" stroke-width="3" stroke-linecap="round"/>
<path d="M34.0534 54.7362C41.211 54.7362 47.0134 49.0216 47.0134 41.9723C47.0134 34.9231 41.211 29.2085 34.0534 29.2085C26.8957 29.2085 21.0934 34.9231 21.0934 41.9723C21.0934 49.0216 26.8957 54.7362 34.0534 54.7362Z" stroke="white" stroke-width="3"/>
</svg>
