<svg width="20" height="20" viewBox="0 0 20 20" fill="none" xmlns="http://www.w3.org/2000/svg">
<g clip-path="url(#clip0_33_7)">
<path fill-rule="evenodd" clip-rule="evenodd" d="M2.35611 0.638934C2.57482 0.420544 2.83746 0.251131 3.1266 0.141921C3.41575 0.0327107 3.7248 -0.013803 4.03328 0.00546222C4.34176 0.0247275 4.64263 0.109332 4.91593 0.253669C5.18924 0.398005 5.42876 0.598779 5.61861 0.842684L7.86236 3.72518C8.27361 4.25393 8.41861 4.94268 8.25611 5.59268L7.57236 8.33018C7.53725 8.47198 7.53928 8.62044 7.57826 8.76122C7.61723 8.90201 7.69183 9.03037 7.79486 9.13393L10.8661 12.2052C10.9698 12.3084 11.0984 12.3831 11.2394 12.4221C11.3804 12.4611 11.5291 12.463 11.6711 12.4277L14.4074 11.7439C14.7282 11.6642 15.0629 11.6582 15.3863 11.7264C15.7098 11.7946 16.0136 11.9352 16.2749 12.1377L19.1574 14.3802C20.1936 15.1864 20.2886 16.7177 19.3611 17.6439L18.0686 18.9364C17.1436 19.8614 15.7611 20.2677 14.4724 19.8139C11.1732 18.6547 8.17803 16.7661 5.70986 14.2889C3.23282 11.8211 1.3443 8.8264 0.184856 5.52768C-0.267644 4.24018 0.138606 2.85643 1.06361 1.93143L2.35611 0.638934Z" fill="#FFA500"/>
</g>
<defs>
<clipPath id="clip0_33_7">
<rect width="20" height="20" fill="white"/>
</clipPath>
</defs>
</svg>
