<svg width="230" height="230" viewBox="0 0 230 230" fill="none" xmlns="http://www.w3.org/2000/svg">
<rect width="230" height="230" rx="58" fill="#005CE6"/>
<path d="M175.782 51.6191L175.003 55.2287C175.003 55.2287 180.313 56.6905 182.107 58.9465C184.155 61.5003 183.276 75.4873 183.276 75.4873H187.327C187.327 75.4873 188.523 60.1467 185.741 56.9252C182.959 53.7037 175.782 51.6191 175.782 51.6191Z" fill="white"/>
<path d="M185.315 83.9065C189.304 83.9065 192.538 81.2036 192.538 77.8695C192.538 74.5354 189.304 71.8325 185.315 71.8325C181.326 71.8325 178.093 74.5354 178.093 77.8695C178.093 81.2036 181.326 83.9065 185.315 83.9065Z" fill="white"/>
<path d="M185.324 93.1559C184.963 94.5236 184.078 95.696 182.859 96.4225C180.984 97.3249 177.622 96.3413 177.622 96.3413C178.513 95.575 179.24 94.6372 179.758 93.5843C180.277 92.5315 180.576 91.3852 180.639 90.2141C181.056 85.9458 178.328 79.3855 178.328 79.3855H192.293C192.293 79.3855 189.575 85.9458 189.982 90.2141C190.045 91.3852 190.345 92.5315 190.863 93.5843C191.382 94.6372 192.109 95.575 193 96.3413C193 96.3413 189.638 97.3069 187.762 96.4225C186.549 95.6959 185.673 94.522 185.324 93.1559Z" fill="white"/>
<path d="M151.142 189.982C151.142 189.982 161.536 189.982 168.206 182.275C174.876 174.569 174.314 166.664 174.314 166.664V100.276C174.314 100.276 172.094 78.5371 149.846 78.5371C137.159 78.5371 134.395 85.1787 120.457 89.2484C117.081 90.2318 113.493 90.2318 110.117 89.2484C96.2342 85.1787 93.4521 78.5551 80.756 78.5551C58.5265 78.5551 56.2881 100.294 56.2881 100.294V166.682C56.2881 166.682 55.7263 174.551 62.396 182.294C69.0658 190.036 79.4601 190 79.4601 190L151.142 189.982ZM159.08 106.123L158.763 154.058C158.763 154.058 158.564 159.238 154.123 159.987C149.955 160.69 135.31 164.968 128.876 169.913C122.442 174.858 119.814 176.32 115.283 176.229H115.265C110.734 176.356 108.124 174.93 101.671 169.913C95.2192 164.895 80.5928 160.654 76.4333 159.987C71.9838 159.238 71.7844 154.058 71.7844 154.058L71.5035 106.123C71.5035 106.123 70.5973 97.7399 81.4266 98.0016C90.8331 98.2091 103.892 111.736 115.274 111.736C126.656 111.736 139.742 98.2001 149.121 98.0016C159.95 97.7399 159.08 106.123 159.08 106.123Z" fill="white"/>
<path d="M176.335 51.8265L118.219 30.5211C116.342 29.8263 114.278 29.8263 112.401 30.5211L54.2854 51.8265C53.9166 51.9789 53.5995 52.2335 53.3719 52.5602C53.1443 52.8868 53.0157 53.2717 53.0013 53.669C52.987 54.0663 53.0876 54.4594 53.2911 54.8015C53.4947 55.1435 53.7926 55.4201 54.1494 55.5984L78.2186 64.8569V61.6445L85.1149 64.8118V69.8291L111.767 82.0745C112.877 82.5874 114.086 82.8532 115.31 82.8532C116.534 82.8532 117.743 82.5874 118.853 82.0745L145.505 69.8291V64.8118L152.401 61.6445V64.8569L176.471 55.5984C176.827 55.4201 177.125 55.1435 177.329 54.8015C177.532 54.4594 177.633 54.0663 177.619 53.669C177.604 53.2717 177.476 52.8868 177.248 52.5602C177.02 52.2335 176.703 51.9789 176.335 51.8265ZM118.98 56.1489C118.72 56.8712 118.25 57.5003 117.63 57.9566C117.01 58.413 116.268 58.676 115.498 58.7125C114.728 58.749 113.965 58.5573 113.304 58.1616C112.644 57.766 112.116 57.1842 111.788 56.4898C111.459 55.7954 111.345 55.0196 111.46 54.2605C111.574 53.5015 111.912 52.7933 112.431 52.2255C112.949 51.6578 113.625 51.256 114.373 51.0709C115.122 50.8858 115.908 50.9258 116.633 51.1858C117.605 51.5343 118.398 52.2528 118.838 53.1835C119.279 54.1142 119.33 55.1808 118.98 56.1489Z" fill="white"/>
<path d="M133.679 157.739C139.923 153.706 150.825 152.524 150.825 152.524V106.042C130.344 111.258 119.297 119.325 119.297 119.325L118.672 163.903C117.63 164.452 116.486 164.781 115.31 164.868C114.132 164.795 112.984 164.465 111.948 163.903L111.323 119.325C111.323 119.325 100.276 111.258 79.7953 106.042V152.551C79.7953 152.551 90.2169 153.913 96.941 157.767C103.665 161.62 109.229 168.153 115.31 168.153C121.391 168.153 127.426 161.764 133.679 157.739Z" fill="white"/>
</svg>
