<svg width="263" height="297" viewBox="0 0 263 297" fill="none" xmlns="http://www.w3.org/2000/svg">
<g clip-path="url(#clip0_9_10)">
<path d="M189.31 23.96L188.45 27.96C188.45 27.96 194.31 29.58 196.29 32.08C198.55 34.91 197.58 50.41 197.58 50.41H202.05C202.05 50.41 203.37 33.41 200.3 29.84C197.23 26.27 189.31 23.96 189.31 23.96Z" fill="white"/>
<path d="M199.83 59.7401C204.232 59.7401 207.8 56.7449 207.8 53.0501C207.8 49.3553 204.232 46.3601 199.83 46.3601C195.428 46.3601 191.86 49.3553 191.86 53.0501C191.86 56.7449 195.428 59.7401 199.83 59.7401Z" fill="white"/>
<path d="M199.84 69.99C199.441 71.5056 198.465 72.8048 197.12 73.61C195.05 74.61 191.34 73.52 191.34 73.52C192.324 72.6707 193.126 71.6315 193.698 70.4648C194.27 69.298 194.601 68.0277 194.67 66.73C195.13 62 192.12 54.73 192.12 54.73H207.53C207.53 54.73 204.53 62 204.98 66.73C205.049 68.0277 205.38 69.298 205.952 70.4648C206.524 71.6315 207.326 72.6707 208.31 73.52C208.31 73.52 204.6 74.59 202.53 73.61C201.192 72.8047 200.225 71.5038 199.84 69.99Z" fill="white"/>
<path d="M162.12 177.29C162.12 177.29 173.59 177.29 180.95 168.75C188.31 160.21 187.69 151.45 187.69 151.45V77.88C187.69 77.88 185.24 53.79 160.69 53.79C146.69 53.79 143.64 61.15 128.26 65.66C124.535 66.7498 120.575 66.7498 116.85 65.66C101.53 61.15 98.46 53.81 84.45 53.81C59.92 53.81 57.45 77.9 57.45 77.9V151.47C57.45 151.47 56.83 160.19 64.19 168.77C71.55 177.35 83.02 177.31 83.02 177.31L162.12 177.29ZM170.88 84.36L170.53 137.48C170.53 137.48 170.31 143.22 165.41 144.05C160.81 144.83 144.65 149.57 137.55 155.05C130.45 160.53 127.55 162.15 122.55 162.05H122.53C117.53 162.19 114.65 160.61 107.53 155.05C100.41 149.49 84.27 144.79 79.68 144.05C74.77 143.22 74.55 137.48 74.55 137.48L74.24 84.36C74.24 84.36 73.24 75.07 85.19 75.36C95.57 75.59 109.98 90.58 122.54 90.58C135.1 90.58 149.54 75.58 159.89 75.36C171.84 75.07 170.88 84.36 170.88 84.36Z" fill="white"/>
<path d="M189.92 24.1899L125.79 0.579945C123.719 -0.19006 121.441 -0.19006 119.37 0.579945L55.24 24.1899C54.8331 24.3588 54.4832 24.641 54.232 25.003C53.9808 25.365 53.8389 25.7915 53.8231 26.2318C53.8073 26.6721 53.9183 27.1077 54.1429 27.4867C54.3675 27.8658 54.6962 28.1723 55.09 28.3699L81.65 38.6299V35.07L89.26 38.5799V44.1399L118.67 57.7099C119.895 58.2784 121.229 58.5728 122.58 58.5728C123.931 58.5728 125.265 58.2784 126.49 57.7099L155.9 44.1399V38.5799L163.51 35.07V38.6299L190.07 28.3699C190.464 28.1723 190.793 27.8658 191.017 27.4867C191.242 27.1077 191.353 26.6721 191.337 26.2318C191.321 25.7915 191.179 25.365 190.928 25.003C190.677 24.641 190.327 24.3588 189.92 24.1899ZM126.63 28.98C126.342 29.7804 125.824 30.4775 125.14 30.9832C124.456 31.4889 123.637 31.7804 122.788 31.8208C121.938 31.8613 121.096 31.6488 120.367 31.2104C119.638 30.7719 119.055 30.1272 118.693 29.3577C118.331 28.5882 118.205 27.7284 118.331 26.8873C118.457 26.0462 118.83 25.2614 119.403 24.6322C119.975 24.003 120.721 23.5577 121.546 23.3526C122.372 23.1475 123.24 23.1918 124.04 23.48C125.113 23.8661 125.988 24.6624 126.474 25.6938C126.959 26.7251 127.016 27.9071 126.63 28.98Z" fill="white"/>
<path d="M142.85 141.56C149.74 137.09 161.77 135.78 161.77 135.78V84.27C139.17 90.05 126.98 98.99 126.98 98.99L126.29 148.39C125.14 148.999 123.877 149.363 122.58 149.46C121.28 149.379 120.014 149.014 118.87 148.39L118.18 98.99C118.18 98.99 105.99 90.05 83.39 84.27V135.81C83.39 135.81 94.89 137.32 102.31 141.59C109.73 145.86 115.87 153.1 122.58 153.1C129.29 153.1 135.95 146.02 142.85 141.56Z" fill="white"/>
<path d="M14.63 253.82H30.73V261.59H4.83V212.73H14.63V253.82ZM73.0089 241.36C73.0089 242.76 72.9156 244.02 72.7289 245.14H44.3789C44.6122 247.94 45.5922 250.133 47.3189 251.72C49.0456 253.307 51.1689 254.1 53.6889 254.1C57.3289 254.1 59.9189 252.537 61.4589 249.41H72.0289C70.9089 253.143 68.7622 256.223 65.5889 258.65C62.4156 261.03 58.5189 262.22 53.8989 262.22C50.1656 262.22 46.8056 261.403 43.8189 259.77C40.8789 258.09 38.5689 255.733 36.8889 252.7C35.2556 249.667 34.4389 246.167 34.4389 242.2C34.4389 238.187 35.2556 234.663 36.8889 231.63C38.5222 228.597 40.8089 226.263 43.7489 224.63C46.6889 222.997 50.0722 222.18 53.8989 222.18C57.5856 222.18 60.8756 222.973 63.7689 224.56C66.7089 226.147 68.9722 228.41 70.5589 231.35C72.1922 234.243 73.0089 237.58 73.0089 241.36ZM62.8589 238.56C62.8122 236.04 61.9022 234.033 60.1289 232.54C58.3556 231 56.1856 230.23 53.6189 230.23C51.1922 230.23 49.1389 230.977 47.4589 232.47C45.8256 233.917 44.8222 235.947 44.4489 238.56H62.8589ZM77.642 242.06C77.642 238.14 78.412 234.663 79.952 231.63C81.5387 228.597 83.662 226.263 86.322 224.63C89.0287 222.997 92.0387 222.18 95.352 222.18C98.2454 222.18 100.765 222.763 102.912 223.93C105.105 225.097 106.855 226.567 108.162 228.34V222.81H118.032V261.59H108.162V255.92C106.902 257.74 105.152 259.257 102.912 260.47C100.719 261.637 98.1754 262.22 95.282 262.22C92.0154 262.22 89.0287 261.38 86.322 259.7C83.662 258.02 81.5387 255.663 79.952 252.63C78.412 249.55 77.642 246.027 77.642 242.06ZM108.162 242.2C108.162 239.82 107.695 237.79 106.762 236.11C105.829 234.383 104.569 233.077 102.982 232.19C101.395 231.257 99.692 230.79 97.872 230.79C96.052 230.79 94.372 231.233 92.832 232.12C91.292 233.007 90.032 234.313 89.052 236.04C88.1187 237.72 87.652 239.727 87.652 242.06C87.652 244.393 88.1187 246.447 89.052 248.22C90.032 249.947 91.292 251.277 92.832 252.21C94.4187 253.143 96.0987 253.61 97.872 253.61C99.692 253.61 101.395 253.167 102.982 252.28C104.569 251.347 105.829 250.04 106.762 248.36C107.695 246.633 108.162 244.58 108.162 242.2ZM137.403 228.83C138.663 226.777 140.297 225.167 142.303 224C144.357 222.833 146.69 222.25 149.303 222.25V232.54H146.713C143.633 232.54 141.3 233.263 139.713 234.71C138.173 236.157 137.403 238.677 137.403 242.27V261.59H127.603V222.81H137.403V228.83ZM177.394 222.25C182.014 222.25 185.748 223.72 188.594 226.66C191.441 229.553 192.864 233.613 192.864 238.84V261.59H183.064V240.17C183.064 237.09 182.294 234.733 180.754 233.1C179.214 231.42 177.114 230.58 174.454 230.58C171.748 230.58 169.601 231.42 168.014 233.1C166.474 234.733 165.704 237.09 165.704 240.17V261.59H155.904V222.81H165.704V227.64C167.011 225.96 168.668 224.653 170.674 223.72C172.728 222.74 174.968 222.25 177.394 222.25ZM206.524 262.08C204.75 262.08 203.28 261.543 202.114 260.47C200.994 259.35 200.434 257.973 200.434 256.34C200.434 254.707 200.994 253.353 202.114 252.28C203.28 251.16 204.75 250.6 206.524 250.6C208.25 250.6 209.674 251.16 210.794 252.28C211.914 253.353 212.474 254.707 212.474 256.34C212.474 257.973 211.914 259.35 210.794 260.47C209.674 261.543 208.25 262.08 206.524 262.08ZM225.337 218.19C223.61 218.19 222.164 217.653 220.997 216.58C219.877 215.46 219.317 214.083 219.317 212.45C219.317 210.817 219.877 209.463 220.997 208.39C222.164 207.27 223.61 206.71 225.337 206.71C227.064 206.71 228.487 207.27 229.607 208.39C230.774 209.463 231.357 210.817 231.357 212.45C231.357 214.083 230.774 215.46 229.607 216.58C228.487 217.653 227.064 218.19 225.337 218.19ZM230.167 222.81V261.59H220.367V222.81H230.167ZM251.26 230.86V249.62C251.26 250.927 251.563 251.883 252.17 252.49C252.823 253.05 253.896 253.33 255.39 253.33H259.94V261.59H253.78C245.52 261.59 241.39 257.577 241.39 249.55V230.86H236.77V222.81H241.39V213.22H251.26V222.81H259.94V230.86H251.26Z" fill="white"/>
</g>
<defs>
<clipPath id="clip0_9_10">
<rect width="262.15" height="296.1" fill="white"/>
</clipPath>
</defs>
</svg>
