<svg width="501" height="218" viewBox="0 0 501 218" fill="none" xmlns="http://www.w3.org/2000/svg">
<g clip-path="url(#clip0_9_2)">
<path d="M135.49 23.96L134.63 27.96C134.63 27.96 140.49 29.5799 142.48 32.0699C144.73 34.8999 143.76 50.4099 143.76 50.4099H148.23C148.23 50.4099 149.56 33.41 146.48 29.84C143.4 26.27 135.49 23.96 135.49 23.96Z" fill="white"/>
<path d="M146.01 59.7401C150.412 59.7401 153.98 56.7449 153.98 53.0501C153.98 49.3553 150.412 46.3601 146.01 46.3601C141.608 46.3601 138.04 49.3553 138.04 53.0501C138.04 56.7449 141.608 59.7401 146.01 59.7401Z" fill="white"/>
<path d="M146.02 69.99C145.621 71.5056 144.645 72.8049 143.3 73.61C141.23 74.61 137.52 73.52 137.52 73.52C138.504 72.6707 139.306 71.6316 139.878 70.4648C140.45 69.298 140.781 68.0277 140.85 66.73C141.31 62 138.3 54.73 138.3 54.73H153.73C153.73 54.73 150.73 62 151.19 66.73C151.259 68.0267 151.589 69.2962 152.159 70.4628C152.73 71.6294 153.529 72.6691 154.51 73.52C154.51 73.52 150.8 74.59 148.73 73.61C147.384 72.8086 146.41 71.5072 146.02 69.99Z" fill="white"/>
<path d="M108.3 177.29C108.3 177.29 119.77 177.29 127.13 168.75C134.49 160.21 133.87 151.45 133.87 151.45V77.86C133.87 77.86 131.42 53.77 106.87 53.77C92.87 53.77 89.87 61.13 74.44 65.64C70.7147 66.7297 66.7553 66.7297 63.03 65.64C47.64 61.13 44.61 53.77 30.6 53.77C6.07001 53.77 3.60001 77.86 3.60001 77.86V151.43C3.60001 151.43 2.99001 160.15 10.34 168.73C17.69 177.31 29.18 177.27 29.18 177.27L108.3 177.29ZM117.06 84.36L116.75 137.48C116.75 137.48 116.53 143.22 111.63 144.05C107.04 144.83 90.87 149.57 83.77 155.05C76.67 160.53 73.77 162.14 68.77 162.05H68.71C63.71 162.18 60.83 160.61 53.71 155.05C46.59 149.49 30.45 144.79 25.86 144.05C20.95 143.22 20.73 137.48 20.73 137.48L20.43 84.36C20.43 84.36 19.43 75.07 31.43 75.36C41.8 75.59 56.21 90.59 68.77 90.59C81.33 90.59 95.77 75.59 106.12 75.36C118.02 75.07 117.06 84.36 117.06 84.36Z" fill="white"/>
<path d="M136.1 24.19L71.97 0.569996C69.8975 -0.190324 67.6225 -0.190324 65.55 0.569996L1.41 24.19C1.00306 24.3589 0.653195 24.6411 0.402008 25.0031C0.150821 25.365 0.00888804 25.7916 -0.00691241 26.2319C-0.0227129 26.6722 0.0882824 27.1077 0.312877 27.4868C0.537473 27.8658 0.866212 28.1724 1.26 28.37L27.83 38.63V35.07L35.41 38.58V44.14L64.81 57.71C66.0351 58.2784 67.3694 58.5729 68.72 58.5729C70.0706 58.5729 71.4049 58.2784 72.63 57.71L102.04 44.14V38.58L109.65 35.07V38.63L136.21 28.37C136.605 28.176 136.937 27.8726 137.165 27.4959C137.393 27.1192 137.508 26.6849 137.496 26.2447C137.484 25.8045 137.347 25.3769 137.099 25.0127C136.852 24.6485 136.505 24.3629 136.1 24.19ZM72.81 28.98C72.5217 29.7826 72.0017 30.4817 71.3159 30.9887C70.6301 31.4957 69.8093 31.7878 68.9574 31.8281C68.1055 31.8684 67.2608 31.6551 66.5302 31.2151C65.7996 30.7751 65.216 30.1282 64.8532 29.3564C64.4904 28.5846 64.3647 27.7225 64.4921 26.8792C64.6195 26.0359 64.9942 25.2494 65.5688 24.6191C66.1434 23.9889 66.8921 23.5433 67.72 23.3387C68.548 23.1342 69.418 23.1799 70.22 23.47C70.7523 23.6611 71.2416 23.9554 71.6599 24.336C72.0783 24.7165 72.4175 25.1759 72.6581 25.6877C72.8987 26.1995 73.0359 26.7538 73.062 27.3187C73.0881 27.8837 73.0024 28.4482 72.81 28.98Z" fill="white"/>
<path d="M89.03 141.55C95.93 137.09 107.95 135.77 107.95 135.77V84.27C85.35 90.05 73.17 98.98 73.17 98.98L72.47 148.39C71.3204 148.999 70.0572 149.363 68.76 149.46C67.46 149.379 66.1936 149.014 65.05 148.39L64.41 98.98C64.41 98.98 52.22 90.05 29.63 84.27V135.77C29.63 135.77 41.12 137.28 48.55 141.55C55.98 145.82 62.1 153.07 68.81 153.07C75.52 153.07 82.13 146.02 89.03 141.55Z" fill="white"/>
<path d="M171.945 163.32H194.27V172.06H161.115V106.035H171.945V163.32ZM251.302 144.605C251.302 146.568 251.175 148.342 250.922 149.925H210.927C211.244 154.105 212.795 157.462 215.582 159.995C218.369 162.528 221.789 163.795 225.842 163.795C231.669 163.795 235.785 161.357 238.192 156.48H249.877C248.294 161.293 245.412 165.252 241.232 168.355C237.115 171.395 231.985 172.915 225.842 172.915C220.839 172.915 216.342 171.807 212.352 169.59C208.425 167.31 205.322 164.143 203.042 160.09C200.825 155.973 199.717 151.223 199.717 145.84C199.717 140.457 200.794 135.738 202.947 131.685C205.164 127.568 208.235 124.402 212.162 122.185C216.152 119.968 220.712 118.86 225.842 118.86C230.782 118.86 235.184 119.937 239.047 122.09C242.91 124.243 245.919 127.283 248.072 131.21C250.225 135.073 251.302 139.538 251.302 144.605ZM239.997 141.185C239.934 137.195 238.509 133.997 235.722 131.59C232.935 129.183 229.484 127.98 225.367 127.98C221.63 127.98 218.432 129.183 215.772 131.59C213.112 133.933 211.529 137.132 211.022 141.185H239.997ZM258.35 145.65C258.35 140.393 259.426 135.738 261.58 131.685C263.796 127.632 266.773 124.497 270.51 122.28C274.31 120 278.49 118.86 283.05 118.86C287.166 118.86 290.745 119.683 293.785 121.33C296.888 122.913 299.358 124.908 301.195 127.315V119.715H312.12V172.06H301.195V164.27C299.358 166.74 296.856 168.798 293.69 170.445C290.523 172.092 286.913 172.915 282.86 172.915C278.363 172.915 274.246 171.775 270.51 169.495C266.773 167.152 263.796 163.922 261.58 159.805C259.426 155.625 258.35 150.907 258.35 145.65ZM301.195 145.84C301.195 142.23 300.435 139.095 298.915 136.435C297.458 133.775 295.526 131.748 293.12 130.355C290.713 128.962 288.116 128.265 285.33 128.265C282.543 128.265 279.946 128.962 277.54 130.355C275.133 131.685 273.17 133.68 271.65 136.34C270.193 138.937 269.465 142.04 269.465 145.65C269.465 149.26 270.193 152.427 271.65 155.15C273.17 157.873 275.133 159.963 277.54 161.42C280.01 162.813 282.606 163.51 285.33 163.51C288.116 163.51 290.713 162.813 293.12 161.42C295.526 160.027 297.458 158 298.915 155.34C300.435 152.617 301.195 149.45 301.195 145.84ZM337.174 127.315C338.758 124.655 340.848 122.597 343.444 121.14C346.104 119.62 349.239 118.86 352.849 118.86V130.07H350.094C345.851 130.07 342.621 131.147 340.404 133.3C338.251 135.453 337.174 139.19 337.174 144.51V172.06H326.344V119.715H337.174V127.315ZM389.214 118.86C393.331 118.86 397.004 119.715 400.234 121.425C403.528 123.135 406.093 125.668 407.929 129.025C409.766 132.382 410.684 136.435 410.684 141.185V172.06H399.949V142.8C399.949 138.113 398.778 134.535 396.434 132.065C394.091 129.532 390.893 128.265 386.839 128.265C382.786 128.265 379.556 129.532 377.149 132.065C374.806 134.535 373.634 138.113 373.634 142.8V172.06H362.804V119.715H373.634V125.7C375.408 123.547 377.656 121.868 380.379 120.665C383.166 119.462 386.111 118.86 389.214 118.86ZM428.869 172.725C426.905 172.725 425.259 172.06 423.929 170.73C422.599 169.4 421.934 167.753 421.934 165.79C421.934 163.827 422.599 162.18 423.929 160.85C425.259 159.52 426.905 158.855 428.869 158.855C430.769 158.855 432.384 159.52 433.714 160.85C435.044 162.18 435.709 163.827 435.709 165.79C435.709 167.753 435.044 169.4 433.714 170.73C432.384 172.06 430.769 172.725 428.869 172.725ZM452.924 112.78C450.96 112.78 449.314 112.115 447.984 110.785C446.654 109.455 445.989 107.808 445.989 105.845C445.989 103.882 446.654 102.235 447.984 100.905C449.314 99.5751 450.96 98.9101 452.924 98.9101C454.824 98.9101 456.439 99.5751 457.769 100.905C459.099 102.235 459.764 103.882 459.764 105.845C459.764 107.808 459.099 109.455 457.769 110.785C456.439 112.115 454.824 112.78 452.924 112.78ZM458.244 119.715V172.06H447.414V119.715H458.244ZM485.098 128.55V157.525C485.098 159.488 485.541 160.913 486.428 161.8C487.378 162.623 488.961 163.035 491.178 163.035H497.828V172.06H489.278C484.401 172.06 480.664 170.92 478.068 168.64C475.471 166.36 474.173 162.655 474.173 157.525V128.55H467.998V119.715H474.173V106.7H485.098V119.715H497.828V128.55H485.098Z" fill="white"/>
</g>
<defs>
<clipPath id="clip0_9_2">
<rect width="500.63" height="217.35" fill="white"/>
</clipPath>
</defs>
</svg>
